<?xml version="1.0" encoding="utf-8"?>
<!-- Generator: Adobe Illustrator 22.0.1, SVG Export Plug-In . SVG Version: 6.00 Build 0)  -->
<svg version="1.1" id="Layer_1" xmlns="http://www.w3.org/2000/svg" xmlns:xlink="http://www.w3.org/1999/xlink" x="0px" y="0px"
	 width="158.1px" height="28.8px" viewBox="0 0 158.1 28.8" style="enable-background:new 0 0 158.1 28.8;" xml:space="preserve">
<style type="text/css">
	.st0{fill:#255562;}
	.st1{fill:#38BEC0;}
</style>
<g id="logo">
	<path class="st0" d="M15.1,26.7c0,0.3-0.1,0.5-0.3,0.7c-0.2,0.3-0.6,0.4-1,0.4H0V3.8h13.8c0.4,0,0.7,0.1,1,0.4
		C15,4.5,15.1,4.7,15.1,5c0,0.7-0.4,1.1-1.3,1.1H2.6v8.1h8.4c0.4,0,0.7,0.1,1,0.4c0.2,0.2,0.3,0.5,0.3,0.7s-0.1,0.5-0.3,0.8
		c-0.3,0.3-0.6,0.4-1,0.4H2.6v9h11.2c0.4,0,0.7,0.1,1,0.4C15,26.2,15.1,26.4,15.1,26.7z"/>
	<path class="st0" d="M34.3,28.8L20.2,10.2V27c0,0.8-0.4,1.1-1.3,1.1c-0.8,0-1.2-0.4-1.2-1.1V2.8l14.1,18.6V4.7
		c0-0.8,0.4-1.2,1.3-1.2c0.8,0,1.3,0.4,1.3,1.2V28.8z"/>
	<path class="st0" d="M69.8,27c0,0.3-0.1,0.6-0.4,0.8c-0.3,0.2-0.6,0.4-0.9,0.4c-0.4,0-0.8-0.2-1.1-0.6l-6.2-9.1
		c-0.6,0-0.9,0.1-0.9,0.1H57V27c0,0.8-0.4,1.1-1.3,1.1c-0.8,0-1.2-0.4-1.2-1.1V3.8h5.9c2.3,0,4.2,0.4,5.8,1.3c2.2,1.3,3.4,3.3,3.4,6
		c0,3.8-1.9,6.1-5.5,7l5.6,8.2C69.7,26.6,69.8,26.8,69.8,27z M67,11.1c0-3.3-2.2-5-6.6-5H57v10.1h3.4c2,0,3.5-0.3,4.5-0.9
		C66.3,14.6,67,13.2,67,11.1z"/>
	<path class="st0" d="M87,26.7c0,0.3-0.1,0.5-0.3,0.7c-0.2,0.3-0.6,0.4-1,0.4H72V3.8h13.8c0.4,0,0.7,0.1,1,0.4C86.9,4.5,87,4.7,87,5
		c0,0.7-0.4,1.1-1.3,1.1H74.5v8.1h8.4c0.4,0,0.7,0.1,1,0.4c0.2,0.2,0.3,0.5,0.3,0.7s-0.1,0.5-0.3,0.8c-0.3,0.3-0.6,0.4-1,0.4h-8.4v9
		h11.2c0.4,0,0.7,0.1,1,0.4C86.9,26.2,87,26.4,87,26.7z"/>
	<path class="st1" d="M106.4,27.2c0,0.3-0.1,0.6-0.4,0.8c-0.3,0.2-0.6,0.4-0.9,0.4c-0.4,0-0.8-0.2-1.1-0.6l-6.2-9.1
		c-0.6,0-0.9,0.1-0.9,0.1h-3.4v8.4c0,0.8-0.4,1.1-1.3,1.1c-0.8,0-1.2-0.4-1.2-1.1V4H97c2.3,0,4.2,0.4,5.8,1.3c2.2,1.3,3.4,3.3,3.4,6
		c0,3.8-1.9,6.1-5.5,7l5.6,8.2C106.3,26.9,106.4,27.1,106.4,27.2z M103.6,11.3c0-3.3-2.2-5-6.6-5h-3.4v10.1H97c2,0,3.5-0.3,4.5-0.9
		C102.9,14.8,103.6,13.4,103.6,11.3z"/>
	<path class="st1" d="M138.5,16c0,3.3-1.3,6.2-3.8,8.6c-2.5,2.5-5.5,3.7-8.9,3.7s-6.3-1.2-8.8-3.7c-2.5-2.5-3.7-5.3-3.7-8.6
		s1.2-6.2,3.7-8.6c2.5-2.5,5.4-3.7,8.8-3.7s6.3,1.2,8.9,3.7C137.2,9.9,138.5,12.7,138.5,16z M135.9,16c0-2.7-1-5.1-3-7
		c-2-2-4.3-2.9-7-2.9c-2.7,0-5,1-7,2.9c-2,2-3,4.3-3,7c0,2.7,1,5.1,3,7c2,2,4.3,2.9,7,2.9c2.7,0,5-1,7-2.9
		C134.9,21.1,135.9,18.7,135.9,16z"/>
	<path class="st1" d="M110,5.8c-0.4,0-0.8-0.1-1.2-0.2v21.9c0,0.8,0.4,1.1,1.3,1.1c0.8,0,1.3-0.4,1.3-1.1v-22
		C110.9,5.7,110.5,5.8,110,5.8z"/>
	<path class="st0" d="M53.1,4.2c-0.2-0.3-0.6-0.4-1-0.4H36.6c-0.8,0-1.2,0.4-1.2,1.2c0,0.8,0.4,1.1,1.2,1.1h6.5v18.7h0V27
		c0,0.8,0.4,1.1,1.2,1.1c0.9,0,1.3-0.4,1.3-1.1v-2.1V21V6.1h6.5c0.4,0,0.7-0.1,1-0.4c0.2-0.2,0.3-0.5,0.3-0.7
		C53.4,4.7,53.3,4.5,53.1,4.2z"/>
	<path class="st1" d="M112.3,2.3c0-0.6-0.2-1.2-0.7-1.6c-0.5-0.5-1-0.7-1.6-0.7c-0.6,0-1.2,0.2-1.6,0.7c-0.5,0.5-0.7,1-0.7,1.6
		c0,0.6,0.2,1.2,0.7,1.6c0.5,0.5,1,0.7,1.6,0.7c0.6,0,1.2-0.2,1.6-0.7C112.1,3.5,112.3,2.9,112.3,2.3z"/>
	<path class="st1" d="M158.1,5.2c0,0.3-0.1,0.5-0.3,0.7c-0.2,0.3-0.6,0.4-1,0.4h-2.1c-1.5,0-2.9,0.7-4,2.2c-1.4,1.8-2,4.3-2,7.5
		c0,3.6-0.8,6.6-2.5,8.8c-1.6,2.2-3.6,3.2-6.1,3.2H138c-0.8,0-1.2-0.4-1.2-1.2c0-0.7,0.4-1.1,1.2-1.1h2.1c1.5,0,2.9-0.7,4-2.2
		c1.4-1.8,2-4.3,2-7.5c0-3.6,0.8-6.5,2.5-8.8c1.6-2.2,3.6-3.2,6.1-3.2h2.1c0.4,0,0.7,0.1,1,0.4C158,4.7,158.1,4.9,158.1,5.2z"/>
</g>
</svg>
